<svg width="22" height="23" viewBox="0 0 22 23" fill="none" xmlns="http://www.w3.org/2000/svg">
<g id="shopping-bag" clip-path="url(#clip0_0_6946)">
<path id="Vector" d="M5.5 1.8418L2.75 5.51201V18.3577C2.75 18.8444 2.94315 19.3112 3.28697 19.6554C3.63079 19.9995 4.0971 20.1929 4.58333 20.1929H17.4167C17.9029 20.1929 18.3692 19.9995 18.713 19.6554C19.0568 19.3112 19.25 18.8444 19.25 18.3577V5.51201L16.5 1.8418H5.5Z" stroke="#333333" stroke-width="2" stroke-linecap="round" stroke-linejoin="round"/>
<path id="Vector_2" d="M2.75 5.51172H19.25" stroke="#333333" stroke-width="2" stroke-linecap="round" stroke-linejoin="round"/>
<path id="Vector_3" d="M14.6673 9.18164C14.6673 10.155 14.281 11.0886 13.5934 11.7769C12.9057 12.4652 11.9731 12.8519 11.0007 12.8519C10.0282 12.8519 9.09556 12.4652 8.40793 11.7769C7.72029 11.0886 7.33398 10.155 7.33398 9.18164" stroke="#333333" stroke-width="2" stroke-linecap="round" stroke-linejoin="round"/>
</g>
<defs>
<clipPath id="clip0_0_6946">
<rect width="22" height="22.0213" fill="white" transform="translate(0 0.00585938)"/>
</clipPath>
</defs>
</svg>
