<svg width="61" height="61" viewBox="0 0 61 61" fill="none" xmlns="http://www.w3.org/2000/svg">
<g id="carbon:delivery">
<path id="Vector" d="M7.625 30.5H30.5V34.3125H7.625V30.5ZM3.8125 20.9688H22.875V24.7812H3.8125V20.9688Z" fill="#333333"/>
<path id="Vector_2" d="M57.0333 31.6552L51.3146 18.3114C51.1678 17.9685 50.9236 17.6761 50.6121 17.4708C50.3007 17.2654 49.9358 17.156 49.5627 17.1562H43.844V13.3438C43.844 12.8382 43.6432 12.3533 43.2857 11.9958C42.9282 11.6383 42.4433 11.4375 41.9377 11.4375H11.4377V15.25H40.0315V39.1849C39.1629 39.6893 38.4027 40.3606 37.7948 41.1602C37.1869 41.9598 36.7434 42.8719 36.4897 43.8438H24.5108C24.0468 42.0468 22.9434 40.4808 21.4074 39.4392C19.8714 38.3976 18.0082 37.9519 16.1671 38.1858C14.3261 38.4196 12.6335 39.3169 11.4066 40.7094C10.1798 42.102 9.50293 43.8941 9.50293 45.75C9.50293 47.6059 10.1798 49.398 11.4066 50.7906C12.6335 52.1831 14.3261 53.0804 16.1671 53.3142C18.0082 53.5481 19.8714 53.1024 21.4074 52.0608C22.9434 51.0192 24.0468 49.4532 24.5108 47.6562H36.4897C36.9044 49.2923 37.8527 50.7433 39.1847 51.7798C40.5167 52.8163 42.1562 53.3791 43.844 53.3791C45.5317 53.3791 47.1713 52.8163 48.5033 51.7798C49.8353 50.7433 50.7836 49.2923 51.1983 47.6562H55.2815C55.7871 47.6562 56.2719 47.4554 56.6294 47.0979C56.9869 46.7404 57.1877 46.2556 57.1877 45.75V32.4062C57.1878 32.148 57.1353 31.8925 57.0333 31.6552ZM17.1565 49.5625C16.4024 49.5625 15.6653 49.3389 15.0384 48.92C14.4114 48.5011 13.9228 47.9056 13.6342 47.209C13.3456 46.5123 13.2701 45.7458 13.4172 45.0062C13.5644 44.2667 13.9275 43.5873 14.4606 43.0542C14.9938 42.521 15.6732 42.1579 16.4127 42.0108C17.1523 41.8636 17.9188 41.9391 18.6155 42.2277C19.3121 42.5163 19.9075 43.0049 20.3265 43.6319C20.7454 44.2589 20.969 44.996 20.969 45.75C20.968 46.7608 20.566 47.73 19.8512 48.4447C19.1365 49.1595 18.1673 49.5615 17.1565 49.5625ZM43.844 20.9688H48.3046L52.3916 30.5H43.844V20.9688ZM43.844 49.5625C43.0899 49.5625 42.3528 49.3389 41.7259 48.92C41.0989 48.5011 40.6103 47.9056 40.3217 47.209C40.0331 46.5123 39.9576 45.7458 40.1047 45.0062C40.2519 44.2667 40.615 43.5873 41.1481 43.0542C41.6813 42.521 42.3607 42.1579 43.1002 42.0108C43.8398 41.8636 44.6063 41.9391 45.303 42.2277C45.9996 42.5163 46.595 43.0049 47.014 43.6319C47.4329 44.2589 47.6565 44.996 47.6565 45.75C47.6555 46.7608 47.2535 47.73 46.5387 48.4447C45.824 49.1595 44.8548 49.5615 43.844 49.5625ZM53.3752 43.8438H51.1983C50.7784 42.2109 49.8285 40.7636 48.4976 39.7286C47.1667 38.6937 45.5299 38.1297 43.844 38.125V34.3125H53.3752V43.8438Z" fill="#333333"/>
</g>
</svg>
