<svg width="148" height="31" viewBox="0 0 148 31" fill="none" xmlns="http://www.w3.org/2000/svg">
<g id="Grids">
<g id="grid 4">
<rect id="Background" x="117" width="31" height="31" rx="6" fill="#F6F6F6"/>
<g id="grid 4_2" opacity="0.3">
<g id="Group 3">
<path id="Vector 3" d="M142 10L129 10" stroke="#232323" stroke-width="2"/>
<path id="Vector 4" d="M142 16L129 16" stroke="#232323" stroke-width="2"/>
<path id="Vector 5" d="M142 22L129 22" stroke="#232323" stroke-width="2"/>
</g>
<g id="Group 4">
<rect id="Rectangle 5" x="124" y="9" width="2" height="2" fill="#232323"/>
<rect id="Rectangle 6" x="124" y="15" width="2" height="2" fill="#232323"/>
<rect id="Rectangle 7" x="124" y="21" width="2" height="2" fill="#232323"/>
</g>
</g>
</g>
<g id="grid 3">
<rect id="Background_2" x="78" width="31" height="31" rx="6" fill="#F6F6F6"/>
<g id="grid 3_2" opacity="0.3">
<path id="Vector 3_2" d="M85 8V24" stroke="#232323" stroke-width="2"/>
<path id="Vector 4_2" d="M91.0542 8V24" stroke="#232323" stroke-width="2"/>
<path id="Vector 5_2" d="M97 8V24" stroke="#232323" stroke-width="2"/>
<path id="Vector 6" d="M103 8V24" stroke="#232323" stroke-width="2"/>
</g>
</g>
<g id="grid 2">
<rect id="Background_3" x="39" width="31" height="31" rx="6" fill="#F6F6F6"/>
<g id="grid">
<path id="Vector 3_3" d="M49 8V24" stroke="#252525" stroke-width="2"/>
<path id="Vector 4_3" d="M55.0542 8V24" stroke="#252525" stroke-width="2"/>
<path id="Vector 5_3" d="M61 8V24" stroke="#252525" stroke-width="2"/>
</g>
</g>
<g id="grid 1">
<rect id="Background_4" width="31" height="31" rx="6" fill="#F6F6F6"/>
<g id="grid_2" opacity="0.3">
<path id="Vector 3_4" d="M12 8V24" stroke="#232323" stroke-width="2"/>
<path id="Vector 4_4" d="M18.0542 8V24" stroke="#232323" stroke-width="2"/>
</g>
</g>
</g>
</svg>
