<svg width="229" height="64" viewBox="0 0 229 64" fill="none" xmlns="http://www.w3.org/2000/svg">
<path d="M224.2 41.4C225.415 41.4 226.4 40.415 226.4 39.2C226.4 37.985 225.415 37 224.2 37C222.985 37 222 37.985 222 39.2C222 40.415 222.985 41.4 224.2 41.4Z" fill="#252525"/>
<path d="M71.01 41H75.49V31.13H83.61V27.14H75.49V20.875H85.745V16.885H71.01V41ZM98.9334 33.37C98.9334 36.205 97.1834 37.185 95.3984 37.185C93.8934 37.185 92.2834 36.205 92.2834 33.545V24.655H87.9784V34.315C87.9784 38.935 90.5334 41.35 94.4184 41.35C96.0634 41.35 98.0234 40.44 98.9334 38.69V41H103.203V24.655H98.9334V33.37ZM112.317 35.225C112.317 30.885 113.507 28.295 116.412 28.295C116.832 28.295 117.882 28.295 118.897 28.75L119.632 24.9C118.967 24.515 118.092 24.305 116.937 24.305C115.082 24.305 113.157 25.53 112.317 28.505V24.655H108.047V41H112.317V35.225ZM126.706 32.285C126.706 29.45 128.316 28.47 130.276 28.47C132.131 28.47 133.391 29.73 133.391 32.11V41H137.661V31.34C137.661 26.685 135.386 24.305 131.571 24.305C129.646 24.305 127.651 25.285 126.706 27.07V24.655H122.436V41H126.706V32.285ZM146.53 24.655H142.295V41H146.53V24.655ZM141.665 18.32C141.665 19.825 142.925 20.91 144.43 20.91C145.935 20.91 147.125 19.825 147.125 18.32C147.125 16.885 145.935 15.765 144.43 15.765C142.925 15.765 141.665 16.885 141.665 18.32ZM169.658 28.47C171.443 28.47 172.738 29.73 172.738 32.11V41H176.973V31.655C176.973 26.86 174.628 24.305 170.673 24.305C169.413 24.305 167.033 24.655 165.528 27.385C164.583 25.39 162.938 24.48 160.313 24.34C158.738 24.34 156.568 25.075 155.623 27.07V24.655H151.353V41H155.623V32.285C155.623 29.485 157.303 28.47 159.053 28.47C160.733 28.47 162.028 29.73 162.063 32.005V41H166.333V32.285C166.333 29.765 167.698 28.47 169.658 28.47ZM193.992 41H198.262V24.655H193.992V26.685C192.767 24.9 190.422 24.305 188.917 24.305C184.612 24.305 180.587 27.595 180.587 32.81C180.587 38.025 184.612 41.315 188.917 41.315C190.492 41.315 192.977 40.58 193.992 38.9V41ZM184.997 32.81C184.997 30.15 187.132 28.4 189.512 28.4C191.752 28.4 193.992 30.01 193.992 32.81C193.992 35.61 191.857 37.22 189.512 37.22C187.132 37.22 184.997 35.47 184.997 32.81ZM203.101 41H207.371V15.765H203.101V41ZM212.192 41H216.462V15.765H212.192V41Z" fill="#252525"/>
<path d="M30 9.31507V0H0V64H30V54.6849C23.8545 54.6849 17.9606 52.2948 13.6152 48.0406C9.26964 43.7863 6.82836 38.0164 6.82836 32C6.82836 25.9836 9.26964 20.2135 13.6152 15.9593C17.9606 11.7051 23.8545 9.31507 30 9.31507Z" fill="#252525"/>
<path d="M30 8V54C35.8348 54 41.4306 51.5767 45.5564 47.2633C49.6822 42.95 52 37.1 52 31C52 24.9 49.6822 19.0498 45.5564 14.7366C41.4306 10.4232 35.8348 8 30 8Z" fill="#252525"/>
</svg>
