<svg width="53" height="53" viewBox="0 0 53 53" fill="none" xmlns="http://www.w3.org/2000/svg">
<g id="subway:round-arrow-1" clip-path="url(#clip0_0_6887)">
<path id="Vector" d="M46.2818 8.92305C41.4373 3.45742 34.3879 0 26.5 0C11.8629 0 0 11.8629 0 26.5H6.625C6.625 15.517 15.517 6.625 26.5 6.625C32.5557 6.625 37.9281 9.36817 41.5615 13.6434L35.3299 19.875H53V2.20488L46.2818 8.92305ZM26.5 46.375C20.4443 46.375 15.0719 43.6318 11.4385 39.3566L17.6701 33.125H0V50.7951L6.71816 44.077C11.5627 49.5426 18.6225 53 26.5 53C41.1371 53 53 41.1371 53 26.5H46.375C46.375 37.483 37.483 46.375 26.5 46.375Z" fill="#252525"/>
</g>
<defs>
<clipPath id="clip0_0_6887">
<rect width="53" height="53" fill="white"/>
</clipPath>
</defs>
</svg>
