<svg width="1261" height="714" viewBox="0 0 1261 714" fill="none" xmlns="http://www.w3.org/2000/svg">
<path d="M41.3877 586.269L9.16773 584.547L26.769 557.505L41.3877 586.269Z" fill="#5F9999"/>
<path d="M293.583 17.4059L325.44 12.2856L313.945 42.4348L293.583 17.4059Z" fill="#5F9999"/>
<path d="M1056.71 442.59L1084.66 426.457L1084.66 458.723L1056.71 442.59Z" fill="#5F9999"/>
<path d="M962.796 67.913H966.488L967.19 67.757H972.494L973.248 67.913H977.278V64.767H962.796V67.913ZM961.756 74.153H976.238V71.007H973.014L972.234 71.163H966.254L965.422 71.007H961.756V74.153ZM973.17 60.425L971.818 65.963L971.792 66.769L970.466 72.125L970.154 72.801L968.75 78.625H972.156L976.576 60.425H973.17ZM966.904 60.425L962.484 78.625H965.89L967.32 72.749L967.294 72.099L968.594 66.769L968.958 65.937L970.31 60.425H966.904Z" fill="#5F9999"/>
<path d="M184.289 251.652C184.289 252.103 184.124 252.571 183.795 253.056C183.466 253.542 182.963 253.958 182.287 254.304C181.611 254.634 180.753 254.798 179.713 254.798H178.881L179.401 259.426H182.573L182.677 257.242C183.613 257.086 184.506 256.774 185.355 256.306C186.204 255.821 186.898 255.188 187.435 254.408C187.99 253.628 188.267 252.71 188.267 251.652C188.267 250.751 188.076 249.954 187.695 249.26C187.331 248.55 186.837 247.952 186.213 247.466C185.589 246.964 184.878 246.591 184.081 246.348C183.301 246.088 182.486 245.958 181.637 245.958C180.614 245.958 179.687 246.097 178.855 246.374C178.023 246.634 177.26 247.016 176.567 247.518C175.874 248.021 175.224 248.628 174.617 249.338L177.269 251.522C177.754 250.794 178.361 250.24 179.089 249.858C179.817 249.477 180.58 249.286 181.377 249.286C181.984 249.286 182.504 249.382 182.937 249.572C183.388 249.746 183.726 250.014 183.951 250.378C184.176 250.725 184.289 251.15 184.289 251.652ZM178.543 263.118C178.543 263.708 178.777 264.219 179.245 264.652C179.713 265.068 180.302 265.276 181.013 265.276C181.724 265.276 182.304 265.068 182.755 264.652C183.223 264.219 183.457 263.708 183.457 263.118C183.457 262.546 183.223 262.044 182.755 261.61C182.304 261.177 181.724 260.96 181.013 260.96C180.302 260.96 179.713 261.177 179.245 261.61C178.777 262.044 178.543 262.546 178.543 263.118Z" fill="#5F9999"/>
<path d="M1252.52 694.465C1252.52 694.916 1252.35 695.384 1252.02 695.869C1251.7 696.354 1251.19 696.77 1250.52 697.117C1249.84 697.446 1248.98 697.611 1247.94 697.611H1247.11L1247.63 702.239H1250.8L1250.91 700.055C1251.84 699.899 1252.74 699.587 1253.58 699.119C1254.43 698.634 1255.13 698.001 1255.66 697.221C1256.22 696.441 1256.5 695.522 1256.5 694.465C1256.5 693.564 1256.31 692.766 1255.92 692.073C1255.56 691.362 1255.07 690.764 1254.44 690.279C1253.82 689.776 1253.11 689.404 1252.31 689.161C1251.53 688.901 1250.72 688.771 1249.87 688.771C1248.84 688.771 1247.92 688.91 1247.08 689.187C1246.25 689.447 1245.49 689.828 1244.8 690.331C1244.1 690.834 1243.45 691.44 1242.85 692.151L1245.5 694.335C1245.98 693.607 1246.59 693.052 1247.32 692.671C1248.05 692.29 1248.81 692.099 1249.61 692.099C1250.21 692.099 1250.73 692.194 1251.17 692.385C1251.62 692.558 1251.96 692.827 1252.18 693.191C1252.41 693.538 1252.52 693.962 1252.52 694.465ZM1246.77 705.931C1246.77 706.52 1247.01 707.032 1247.47 707.465C1247.94 707.881 1248.53 708.089 1249.24 708.089C1249.95 708.089 1250.53 707.881 1250.98 707.465C1251.45 707.032 1251.69 706.52 1251.69 705.931C1251.69 705.359 1251.45 704.856 1250.98 704.423C1250.53 703.99 1249.95 703.773 1249.24 703.773C1248.53 703.773 1247.94 703.99 1247.47 704.423C1247.01 704.856 1246.77 705.359 1246.77 705.931Z" fill="#5F9999"/>
</svg>
