<svg width="103" height="17" viewBox="0 0 103 17" fill="none" xmlns="http://www.w3.org/2000/svg">
<g id="reviews">
<path id="Star 5" d="M94.5 0L96.4084 5.87336L102.584 5.87336L97.5878 9.50329L99.4962 15.3766L94.5 11.7467L89.5038 15.3766L91.4122 9.50329L86.416 5.87336L92.5916 5.87336L94.5 0Z" fill="#DDAC55"/>
<path id="Star 4" d="M73 0L75.0206 5.87336L81.5595 5.87336L76.2694 9.50329L78.2901 15.3766L73 11.7467L67.7099 15.3766L69.7306 9.50329L64.4405 5.87336L70.9794 5.87336L73 0Z" fill="#DDAC55"/>
<path id="Star 3" d="M51.5 0L53.4084 5.87336L59.584 5.87336L54.5878 9.50329L56.4962 15.3766L51.5 11.7467L46.5038 15.3766L48.4122 9.50329L43.416 5.87336L49.5916 5.87336L51.5 0Z" fill="#DDAC55"/>
<path id="Star 2" d="M30 0L32.0206 5.87336L38.5595 5.87336L33.2694 9.50329L35.2901 15.3766L30 11.7467L24.7099 15.3766L26.7306 9.50329L21.4405 5.87336L27.9794 5.87336L30 0Z" fill="#DDAC55"/>
<path id="Star 1" d="M8.5 0L10.4084 5.87336L16.584 5.87336L11.5878 9.50329L13.4962 15.3766L8.5 11.7467L3.50383 15.3766L5.41219 9.50329L0.416019 5.87336L6.59163 5.87336L8.5 0Z" fill="#DDAC55"/>
</g>
</svg>
