<svg width="61" height="61" viewBox="0 0 61 61" fill="none" xmlns="http://www.w3.org/2000/svg">
<g id="bx:support">
<path id="Vector" d="M30.5002 5.08398C16.4854 5.08398 5.0835 16.4859 5.0835 30.5006V41.0308C5.0835 43.6334 7.36337 45.7506 10.1668 45.7506H12.7085C13.3826 45.7506 14.0291 45.4829 14.5057 45.0062C14.9824 44.5296 15.2502 43.8831 15.2502 43.209V30.1372C15.2502 29.4631 14.9824 28.8166 14.5057 28.34C14.0291 27.8633 13.3826 27.5955 12.7085 27.5955H10.4007C11.8138 17.7593 20.2776 10.1673 30.5002 10.1673C40.7227 10.1673 49.1865 17.7593 50.5997 27.5955H48.2918C47.6177 27.5955 46.9712 27.8633 46.4946 28.34C46.0179 28.8166 45.7502 29.4631 45.7502 30.1372V45.7506C45.7502 48.5541 43.4703 50.834 40.6668 50.834H35.5835V48.2923H25.4168V55.9173H40.6668C46.2737 55.9173 50.8335 51.3576 50.8335 45.7506C53.6369 45.7506 55.9168 43.6334 55.9168 41.0308V30.5006C55.9168 16.4859 44.5149 5.08398 30.5002 5.08398Z" fill="white"/>
</g>
</svg>
